<svg xmlns="http://www.w3.org/2000/svg" width="500" height="500"><defs><clipPath id="a"><path d="M19 131h14v14H19zM19 145h14v14H19zM19 173h14v14H19zM19 271h14v14H19zM19 285h14v14H19zM19 313h14v14H19zM19 341h14v14H19zM19 355h14v14H19zM33 131h14v14H33zM33 159h14v14H33zM33 229h14v14H33zM33 243h14v14H33zM33 257h14v14H33zM33 285h14v14H33zM33 327h14v14H33zM33 341h14v14H33zM33 355h14v14H33zM47 131h14v14H47zM47 145h14v14H47zM47 159h14v14H47zM47 173h14v14H47zM47 201h14v14H47zM47 229h14v14H47zM47 243h14v14H47zM47 327h14v14H47zM47 355h14v14H47zM61 131h14v14H61zM61 145h14v14H61zM61 159h14v14H61zM61 173h14v14H61zM61 215h14v14H61zM61 243h14v14H61zM61 285h14v14H61zM61 299h14v14H61zM61 327h14v14H61zM61 341h14v14H61zM75 131h14v14H75zM75 145h14v14H75zM75 159h14v14H75zM75 187h14v14H75zM75 243h14v14H75zM75 257h14v14H75zM75 271h14v14H75zM75 285h14v14H75zM75 299h14v14H75zM75 327h14v14H75zM75 341h14v14H75zM89 145h14v14H89zM89 173h14v14H89zM89 215h14v14H89zM89 243h14v14H89zM89 257h14v14H89zM89 285h14v14H89zM89 313h14v14H89zM89 327h14v14H89zM89 341h14v14H89zM89 355h14v14H89zM103 131h14v14h-14zM103 159h14v14h-14zM103 187h14v14h-14zM103 215h14v14h-14zM103 243h14v14h-14zM103 271h14v14h-14zM103 299h14v14h-14zM103 327h14v14h-14zM103 355h14v14h-14zM117 131h14v14h-14zM117 145h14v14h-14zM117 159h14v14h-14zM117 187h14v14h-14zM117 215h14v14h-14zM117 257h14v14h-14zM117 285h14v14h-14zM117 299h14v14h-14zM117 313h14v14h-14zM117 341h14v14h-14zM131 33h14v14h-14zM131 47h14v14h-14zM131 75h14v14h-14zM131 103h14v14h-14zM131 117h14v14h-14zM131 173h14v14h-14zM131 187h14v14h-14zM131 243h14v14h-14zM131 257h14v14h-14zM131 313h14v14h-14zM131 327h14v14h-14zM131 341h14v14h-14zM131 355h14v14h-14zM131 383h14v14h-14zM131 411h14v14h-14zM131 425h14v14h-14zM131 439h14v14h-14zM131 453h14v14h-14zM131 467h14v14h-14zM145 33h14v14h-14zM145 47h14v14h-14zM145 61h14v14h-14zM145 75h14v14h-14zM145 89h14v14h-14zM145 131h14v14h-14zM145 145h14v14h-14zM145 173h14v14h-14zM145 201h14v14h-14zM145 215h14v14h-14zM145 271h14v14h-14zM145 299h14v14h-14zM145 313h14v14h-14zM145 327h14v14h-14zM145 355h14v14h-14zM145 369h14v14h-14zM145 383h14v14h-14zM145 397h14v14h-14zM145 453h14v14h-14zM145 467h14v14h-14zM159 33h14v14h-14zM159 47h14v14h-14zM159 89h14v14h-14zM159 103h14v14h-14zM159 131h14v14h-14zM159 145h14v14h-14zM159 215h14v14h-14zM159 257h14v14h-14zM159 313h14v14h-14zM159 383h14v14h-14zM159 397h14v14h-14zM159 439h14v14h-14zM159 453h14v14h-14zM159 467h14v14h-14zM173 33h14v14h-14zM173 75h14v14h-14zM173 89h14v14h-14zM173 117h14v14h-14zM173 145h14v14h-14zM173 159h14v14h-14zM173 187h14v14h-14zM173 243h14v14h-14zM173 257h14v14h-14zM173 271h14v14h-14zM173 285h14v14h-14zM173 313h14v14h-14zM173 327h14v14h-14zM173 355h14v14h-14zM173 383h14v14h-14zM173 411h14v14h-14zM173 453h14v14h-14zM173 467h14v14h-14zM187 33h14v14h-14zM187 47h14v14h-14zM187 103h14v14h-14zM187 117h14v14h-14zM187 131h14v14h-14zM187 159h14v14h-14zM187 173h14v14h-14zM187 187h14v14h-14zM187 201h14v14h-14zM187 215h14v14h-14zM187 271h14v14h-14zM187 285h14v14h-14zM187 313h14v14h-14zM187 327h14v14h-14zM187 355h14v14h-14zM187 369h14v14h-14zM187 383h14v14h-14zM187 397h14v14h-14zM187 425h14v14h-14zM187 453h14v14h-14zM201 19h14v14h-14zM201 33h14v14h-14zM201 47h14v14h-14zM201 75h14v14h-14zM201 89h14v14h-14zM201 131h14v14h-14zM201 159h14v14h-14zM201 187h14v14h-14zM201 201h14v14h-14zM201 243h14v14h-14zM201 257h14v14h-14zM201 299h14v14h-14zM201 313h14v14h-14zM201 355h14v14h-14zM201 369h14v14h-14zM201 383h14v14h-14zM201 425h14v14h-14zM201 439h14v14h-14zM201 467h14v14h-14zM215 47h14v14h-14zM215 75h14v14h-14zM215 103h14v14h-14zM215 145h14v14h-14zM215 159h14v14h-14zM215 187h14v14h-14zM215 215h14v14h-14zM215 257h14v14h-14zM215 327h14v14h-14zM215 355h14v14h-14zM215 369h14v14h-14zM215 397h14v14h-14zM215 411h14v14h-14zM215 425h14v14h-14zM215 439h14v14h-14zM215 453h14v14h-14zM215 467h14v14h-14zM229 47h14v14h-14zM229 75h14v14h-14zM229 117h14v14h-14zM229 201h14v14h-14zM229 215h14v14h-14zM229 313h14v14h-14zM229 327h14v14h-14zM229 341h14v14h-14zM229 383h14v14h-14zM229 397h14v14h-14zM229 453h14v14h-14zM243 19h14v14h-14zM243 61h14v14h-14zM243 75h14v14h-14zM243 89h14v14h-14zM243 103h14v14h-14zM243 117h14v14h-14zM243 131h14v14h-14zM243 145h14v14h-14zM243 159h14v14h-14zM243 173h14v14h-14zM243 187h14v14h-14zM243 215h14v14h-14zM243 229h14v14h-14zM243 243h14v14h-14zM243 257h14v14h-14zM243 299h14v14h-14zM243 313h14v14h-14zM243 327h14v14h-14zM243 341h14v14h-14zM243 369h14v14h-14zM243 383h14v14h-14zM257 19h14v14h-14zM257 47h14v14h-14zM257 61h14v14h-14zM257 89h14v14h-14zM257 117h14v14h-14zM257 131h14v14h-14zM257 159h14v14h-14zM257 173h14v14h-14zM257 201h14v14h-14zM257 257h14v14h-14zM257 299h14v14h-14zM257 327h14v14h-14zM257 355h14v14h-14zM257 369h14v14h-14zM257 383h14v14h-14zM257 397h14v14h-14zM257 453h14v14h-14zM257 467h14v14h-14zM271 19h14v14h-14zM271 33h14v14h-14zM271 47h14v14h-14zM271 75h14v14h-14zM271 103h14v14h-14zM271 117h14v14h-14zM271 159h14v14h-14zM271 173h14v14h-14zM271 229h14v14h-14zM271 271h14v14h-14zM271 369h14v14h-14zM271 439h14v14h-14zM271 467h14v14h-14zM285 19h14v14h-14zM285 131h14v14h-14zM285 159h14v14h-14zM285 173h14v14h-14zM285 187h14v14h-14zM285 229h14v14h-14zM285 243h14v14h-14zM285 257h14v14h-14zM285 299h14v14h-14zM285 313h14v14h-14zM285 327h14v14h-14zM285 341h14v14h-14zM285 397h14v14h-14zM285 411h14v14h-14zM285 453h14v14h-14zM285 467h14v14h-14zM299 19h14v14h-14zM299 47h14v14h-14zM299 75h14v14h-14zM299 89h14v14h-14zM299 103h14v14h-14zM299 117h14v14h-14zM299 131h14v14h-14zM299 173h14v14h-14zM299 187h14v14h-14zM299 229h14v14h-14zM299 243h14v14h-14zM299 257h14v14h-14zM299 271h14v14h-14zM299 299h14v14h-14zM299 313h14v14h-14zM299 341h14v14h-14zM299 383h14v14h-14zM299 425h14v14h-14zM299 467h14v14h-14zM313 75h14v14h-14zM313 131h14v14h-14zM313 145h14v14h-14zM313 159h14v14h-14zM313 187h14v14h-14zM313 201h14v14h-14zM313 229h14v14h-14zM313 257h14v14h-14zM313 271h14v14h-14zM313 299h14v14h-14zM313 313h14v14h-14zM313 327h14v14h-14zM313 355h14v14h-14zM313 369h14v14h-14zM313 383h14v14h-14zM313 439h14v14h-14zM313 453h14v14h-14zM313 467h14v14h-14zM327 19h14v14h-14zM327 47h14v14h-14zM327 61h14v14h-14zM327 103h14v14h-14zM327 159h14v14h-14zM327 187h14v14h-14zM327 215h14v14h-14zM327 257h14v14h-14zM327 271h14v14h-14zM327 313h14v14h-14zM327 327h14v14h-14zM327 355h14v14h-14zM327 397h14v14h-14zM327 425h14v14h-14zM327 453h14v14h-14zM327 467h14v14h-14zM341 33h14v14h-14zM341 47h14v14h-14zM341 89h14v14h-14zM341 117h14v14h-14zM341 145h14v14h-14zM341 159h14v14h-14zM341 215h14v14h-14zM341 243h14v14h-14zM341 285h14v14h-14zM341 313h14v14h-14zM341 369h14v14h-14zM341 425h14v14h-14zM341 453h14v14h-14zM341 467h14v14h-14zM355 19h14v14h-14zM355 47h14v14h-14zM355 61h14v14h-14zM355 75h14v14h-14zM355 89h14v14h-14zM355 103h14v14h-14zM355 131h14v14h-14zM355 145h14v14h-14zM355 159h14v14h-14zM355 173h14v14h-14zM355 243h14v14h-14zM355 257h14v14h-14zM355 271h14v14h-14zM355 299h14v14h-14zM355 313h14v14h-14zM355 327h14v14h-14zM355 341h14v14h-14zM355 355h14v14h-14zM355 369h14v14h-14zM355 383h14v14h-14zM355 397h14v14h-14zM355 411h14v14h-14zM355 453h14v14h-14zM369 131h14v14h-14zM369 145h14v14h-14zM369 187h14v14h-14zM369 215h14v14h-14zM369 243h14v14h-14zM369 271h14v14h-14zM369 299h14v14h-14zM369 313h14v14h-14zM369 327h14v14h-14zM369 341h14v14h-14zM369 355h14v14h-14zM369 411h14v14h-14zM369 425h14v14h-14zM369 453h14v14h-14zM369 467h14v14h-14zM383 131h14v14h-14zM383 159h14v14h-14zM383 187h14v14h-14zM383 201h14v14h-14zM383 229h14v14h-14zM383 243h14v14h-14zM383 257h14v14h-14zM383 299h14v14h-14zM383 313h14v14h-14zM383 327h14v14h-14zM383 341h14v14h-14zM383 355h14v14h-14zM383 383h14v14h-14zM383 411h14v14h-14zM383 439h14v14h-14zM383 453h14v14h-14zM383 467h14v14h-14zM397 215h14v14h-14zM397 299h14v14h-14zM397 313h14v14h-14zM397 355h14v14h-14zM397 411h14v14h-14zM411 131h14v14h-14zM411 145h14v14h-14zM411 159h14v14h-14zM411 173h14v14h-14zM411 215h14v14h-14zM411 229h14v14h-14zM411 257h14v14h-14zM411 285h14v14h-14zM411 299h14v14h-14zM411 313h14v14h-14zM411 355h14v14h-14zM411 369h14v14h-14zM411 383h14v14h-14zM411 397h14v14h-14zM411 411h14v14h-14zM411 425h14v14h-14zM411 453h14v14h-14zM411 467h14v14h-14zM425 173h14v14h-14zM425 201h14v14h-14zM425 215h14v14h-14zM425 229h14v14h-14zM425 243h14v14h-14zM425 257h14v14h-14zM425 299h14v14h-14zM425 313h14v14h-14zM425 411h14v14h-14zM425 439h14v14h-14zM425 453h14v14h-14zM425 467h14v14h-14zM439 131h14v14h-14zM439 145h14v14h-14zM439 159h14v14h-14zM439 173h14v14h-14zM439 187h14v14h-14zM439 201h14v14h-14zM439 215h14v14h-14zM439 257h14v14h-14zM439 313h14v14h-14zM439 341h14v14h-14zM439 355h14v14h-14zM439 411h14v14h-14zM439 425h14v14h-14zM439 467h14v14h-14zM453 131h14v14h-14zM453 159h14v14h-14zM453 187h14v14h-14zM453 201h14v14h-14zM453 229h14v14h-14zM453 257h14v14h-14zM453 285h14v14h-14zM453 299h14v14h-14zM453 313h14v14h-14zM453 355h14v14h-14zM453 383h14v14h-14zM453 411h14v14h-14zM453 453h14v14h-14zM467 201h14v14h-14zM467 215h14v14h-14zM467 257h14v14h-14zM467 271h14v14h-14zM467 299h14v14h-14zM467 313h14v14h-14zM467 327h14v14h-14zM467 341h14v14h-14zM467 355h14v14h-14zM467 369h14v14h-14zM467 383h14v14h-14zM467 411h14v14h-14zM467 425h14v14h-14zM467 453h14v14h-14zM467 467h14v14h-14z"/></clipPath><clipPath id="b"><path d="M19 19v98h98V19zm14 14h70v70H33z" clip-rule="evenodd"/></clipPath><clipPath id="c"><path d="M47 47h42v42H47z"/></clipPath><clipPath id="d"><path d="M481 19h-98v98h98zm-14 14v70h-70V33z" clip-rule="evenodd"/></clipPath><clipPath id="e"><path d="M453 47v42h-42V47z"/></clipPath><clipPath id="f"><path d="M19 481h98v-98H19zm14-14v-70h70v70z" clip-rule="evenodd"/></clipPath><clipPath id="g"><path d="M47 453v-42h42v42z"/></clipPath></defs><path fill="#fff" d="M0 0h500v500H0z" clip-path="url('#clip-path-background-color')"/><path d="M0 0h500v500H0z" clip-path="url('#a')"/><path d="M19 19h98v98H19z" clip-path="url('#b')"/><path d="M47 47h42v42H47z" clip-path="url('#c')"/><path d="M383 19h98v98h-98z" clip-path="url('#d')"/><path d="M411 47h42v42h-42z" clip-path="url('#e')"/><path d="M19 383h98v98H19z" clip-path="url('#f')"/><path d="M47 411h42v42H47z" clip-path="url('#g')"/></svg>
